<?xml version="1.0" encoding="utf-8"?>
<!-- Generator: Adobe Illustrator 23.0.1, SVG Export Plug-In . SVG Version: 6.00 Build 0)  -->
<svg version="1.1" id="Layer_1" xmlns="http://www.w3.org/2000/svg" xmlns:xlink="http://www.w3.org/1999/xlink" x="0px" y="0px"
	 viewBox="0 0 400 300" style="enable-background:new 0 0 400 300;" xml:space="preserve">
<style type="text/css">
	.st0{fill:#3A3939;}
	.st1{display:none;opacity:0.17;fill:#FFFFFF;enable-background:new    ;}
	.st2{fill:#663535;}
	.st3{fill:#686BFD;}
	.st4{fill:#007F68;}
	.st5{fill:#5B434D;}
	.st6{fill:#A5DD73;}
	.st7{opacity:0.76;fill:#6DB720;enable-background:new    ;}
	.st8{fill:#56403D;}
	.st9{fill:#200A52;}
	.st10{fill:#AB643C;}
	.st11{fill:#659FE4;}
	.st12{fill:#C5E9FF;}
	.st13{fill:none;stroke:#00A99D;stroke-width:4;stroke-miterlimit:10;}
	.st14{fill:none;stroke:#D4145A;stroke-width:4;stroke-miterlimit:10;}
	.st15{fill:none;stroke:#29ABE2;stroke-width:4;stroke-miterlimit:10;}
	.st16{fill:none;stroke:#F7931E;stroke-width:4;stroke-miterlimit:10;}
	.st17{fill:none;stroke:#006837;stroke-width:4;stroke-miterlimit:10;}
	.st18{fill:#FFFFFF;}
	.st19{opacity:0.21;fill:#200A52;enable-background:new    ;}
	.st20{fill:#F8997C;}
	.st21{fill:#FCBF81;}
	.st22{fill:#34323D;}
	.st23{fill:#00BDFF;}
	.st24{fill:none;}
</style>
<title>PP</title>
<path class="st0" d="M257.9,221L167,167.2c-2.9-1.6-5.4-4.3-2.6-6l91.2-52.6c1.4-0.8,3.5-1.4,4.8-0.6l95.4,55.4
	c2.9,1.7,3.4,6.4,0.5,8.1l-86.6,49.4C266.2,223,261.7,223,257.9,221z"/>
<path class="st1" d="M325.3,163.7c-6.9,4-11.9,6.8-22.5,12.8c8.1,4.9,15.1,8.5,16,9l23.2-13.2C340.1,171.5,333.9,168,325.3,163.7z"
	/>
<path class="st1" d="M235,175.2c-8.4,4.9-14.3,8.1-27.2,15.5c9.7,5.9,18.2,10.2,19.3,10.9l27.9-15.9
	C252.9,184.6,245.4,180.4,235,175.2z"/>
<path class="st1" d="M184,169.7c4.3-2.9,8.7-5.7,13.1-8.5l-6.2-4.5l-24.1,10.1c2.9,1.5,6.9,4.4,11,7.3
	C179.9,172.5,181.9,171.1,184,169.7z"/>
<path class="st2" d="M199.5,145.1c0-0.2-0.1-0.3-0.2-0.4c-0.2-0.2-0.4-0.4-0.6-0.5c-3.1-2.1-7.3-2.6-10.5-0.6
	c-0.7,0.5-1.8,1.5-1.4,2.5c0.3,0.6,1,0.9,1.6,1.2c1.8,0.7,3.6,1.2,5.5,1.5c0.7,0.1,1.4,0.2,2.1,0.3c1,0.1,1.9-0.3,2.5-1.1
	C199,147.2,199.8,146,199.5,145.1z"/>
<path class="st3" d="M186.7,145.6c0,0,2.8,2.5,7.6,2.2c4.8-0.4,5.2-2.6,5.2-2.6s-1.2,16-1.9,16.3c-0.7,0.3-3.1,1.5-4.3,1.6
	s-5-1.4-5.1-1.8C188.1,160.7,186.7,145.6,186.7,145.6z"/>
<path class="st4" d="M187.6,122.3c-0.2-0.3-0.6,0-0.4,0.3c3.3,6.7,3.9,14.2,4.5,21.4c0,0.3,0.5,0.3,0.5,0
	C191.6,136.6,190.9,129,187.6,122.3z"/>
<path class="st4" d="M187.2,122.3c0,0,0.9,3.5,0,5.2s-1.7,2.1-0.6,4.2c1.1,2.1,4.2,2.4,4.4,4.1C191.1,137.4,189.5,125.3,187.2,122.3
	z"/>
<path class="st4" d="M197.7,128.6c-2.5,5.3-4,11.1-4.2,17c0,0.4,0.6,0.4,0.6,0c0.2-5.8,1.6-11.5,4.1-16.7
	C198.5,128.5,197.9,128.2,197.7,128.6z"/>
<path class="st4" d="M198.2,130.2c0-0.4-0.1-1.1,0-1.6l-0.4,0.2c-1.2,3-3.1,10.2-3.7,12.4c0.8-1.6,3.9-1.9,4.8-4.2
	c0.4-1,0.4-2.1,0.1-3.1C198.5,132.7,198.2,131.5,198.2,130.2z"/>
<path class="st1" d="M268.5,189.8c8.5-4.6,28.6-14.7,37-19.4L257,140.1l-35,23.8C230.9,168.5,256.2,182.2,268.5,189.8z"/>
<path class="st5" d="M227.6,138.6c0,11.2,0.1,21.4,0.1,21.4s0.2,0.9,1.9,0.2v-22.2C228.9,138.2,228.3,138.4,227.6,138.6z"/>
<path class="st5" d="M274.6,165.9c0,11.2,0.1,21.4,0.1,21.4s0.2,0.9,1.9,0.2v-22.2C275.9,165.5,275.2,165.7,274.6,165.9z"/>
<path class="st5" d="M303.5,148.9c0,11.2,0.1,21.4,0.1,21.4s0.2,0.9,1.9,0.2v-22.2C304.9,148.5,304.2,148.7,303.5,148.9z"/>
<polyline class="st6" points="227.2,137.9 227.2,139.8 275.7,167.9 305.5,148.3 305.6,146.2 "/>
<polyline class="st7" points="227.2,137.9 227.2,139.8 275.7,167.9 305.5,148.3 305.6,146.2 "/>
<polygon class="st6" points="227.2,137.9 258.4,120.1 305.6,146.2 275.5,166 "/>
<path class="st8" d="M270.5,128.7l-6.6,3.2c-0.8,0.4-1.1,1.3-0.7,2c0.1,0.3,0.4,0.5,0.6,0.7l15.6,9.1c0.7,0.4,1.6,0.2,2-0.5l3.8-5.9
	"/>
<path class="st3" d="M303.5,111.8l-53.7-30.9c-0.8-0.5-1.9-0.2-2.4,0.6c-0.2,0.3-0.3,0.6-0.3,0.9v32.9c0,0.5,0.3,0.9,0.7,1.2
	l57.1,33c0.3,0.2,0.7,0.1,0.9-0.2c0.1-0.1,0.1-0.2,0.1-0.3v-32.7C306,114.4,305.1,112.7,303.5,111.8z"/>
<path class="st9" d="M250.8,83.8l50.8,29.3c1.1,0.6,1.8,1.8,1.8,3.1v23.5c0,0.7-0.6,1.3-1.3,1.3c-0.2,0-0.4-0.1-0.6-0.2l-51.8-29.7
	c-0.4-0.2-0.6-0.6-0.6-1.1V84.9c0-0.7,0.5-1.2,1.2-1.2C250.4,83.6,250.6,83.7,250.8,83.8z"/>
<path class="st10" d="M272.7,128.1c0.3-0.1,0.5-0.1,0.5-0.1S273,128.1,272.7,128.1c-0.3,0.1-0.5,0.1-0.5,0.1
	S272.4,128.2,272.7,128.1z"/>
<ellipse class="st11" cx="299.5" cy="113.8" rx="0.5" ry="0.6"/>
<ellipse class="st12" cx="297.8" cy="112.9" rx="0.5" ry="0.6"/>
<line class="st13" x1="251.8" y1="90.3" x2="283" y2="108"/>
<line class="st14" x1="251.9" y1="94.9" x2="257" y2="97.8"/>
<line class="st15" x1="258.5" y1="98.8" x2="286.5" y2="114.2"/>
<line class="st16" x1="251.8" y1="99.2" x2="262.6" y2="105.1"/>
<line class="st13" x1="264.4" y1="106.3" x2="288" y2="118.9"/>
<path class="st6" d="M322.3,110v22.7c0,1.4-1.1,2.5-2.5,2.5c-0.4,0-0.9-0.1-1.3-0.4l-21.6-12.9c-0.8-0.4-1.2-1.3-1.2-2.2V97.5
	c0-1.4,1.1-2.5,2.5-2.5c0.4,0,0.9,0.1,1.3,0.3l21.6,12.5C321.8,108.2,322.3,109.1,322.3,110z"/>
<polyline class="st17" points="306.9,107.4 299.9,112.5 306.2,121.3 "/>
<polyline class="st17" points="313.1,111.1 318.2,121.2 311,124.5 "/>
<path class="st9" d="M252.3,131.9l-11.3,6.5c-0.4,0.2-0.5,0.7-0.3,1.1c0.1,0.1,0.2,0.2,0.3,0.3l31.5,18.1c0.8,0.4,1.7,0.4,2.5,0
	l10.6-6.1c0.4-0.2,0.5-0.7,0.3-1.1c-0.1-0.1-0.2-0.2-0.3-0.3l-31.8-18.4C253.3,131.6,252.7,131.6,252.3,131.9z"/>
<path class="st18" d="M269.4,142.2l-3.2,1.9l2.4,1.4l3.2-1.9L269.4,142.2z"/>
<path class="st18" d="M265.9,140.1l-3.2,1.9l3,1.8l3.2-1.9L265.9,140.1z"/>
<path class="st18" d="M253,132.7l-3.3,1.9l2.9,1.7l3.2-1.9L253,132.7z"/>
<path class="st18" d="M259.9,136.7l-3.2,1.9l2.4,1.4l3.2-1.9L259.9,136.7z"/>
<path class="st18" d="M256.4,134.6l-3.2,1.9l3,1.8c0.4-0.2,2.4-1.4,3.2-1.9L256.4,134.6z"/>
<path class="st18" d="M272.3,143.9l-3.2,1.9l2.3,1.3l3.2-1.9L272.3,143.9z"/>
<path class="st18" d="M262.8,138.4l-3.2,1.9l2.5,1.5l3.2-1.9L262.8,138.4z"/>
<path class="st18" d="M275.1,145.5l-3.2,1.9l3,1.8l3.2-1.9L275.1,145.5z"/>
<polygon class="st18" points="278.6,147.6 275.4,149.5 280.9,152.7 284.1,150.8 "/>
<path class="st18" d="M249.3,135.1L246,137l4.3,2.5l3.2-1.9L249.3,135.1z"/>
<path class="st18" d="M257.5,139.9l-3.2,1.9l2.4,1.4l3.2-1.9L257.5,139.9z"/>
<path class="st18" d="M263.5,143.4l-3.2,1.9l3,1.8l3.2-1.9L263.5,143.4z"/>
<path class="st18" d="M260.4,141.6l-3.2,1.9l2.5,1.5l3.2-1.9L260.4,141.6z"/>
<path class="st18" d="M267,145.4l-3.2,1.9l2.4,1.4l3.2-1.9L267,145.4z"/>
<path class="st18" d="M269.9,147.1l-3.2,1.9l2.3,1.3l3.2-1.9L269.9,147.1z"/>
<path class="st18" d="M254,137.8l-3.2,1.9l3,1.8l3.2-1.9L254,137.8z"/>
<path class="st18" d="M272.7,148.7l-3.2,1.9l3,1.8l3.2-1.9L272.7,148.7z"/>
<polygon class="st18" points="273,152.7 277.2,155.1 280.4,153.2 276.3,150.8 "/>
<polygon class="st18" points="270.6,152.4 268.2,153.8 271,155.4 273.4,154 "/>
<polygon class="st18" points="271.6,155.7 273.9,157.1 276.4,155.7 274,154.3 "/>
<polygon class="st18" points="245.2,137.6 242.7,139 245.6,140.7 248,139.3 "/>
<polygon class="st18" points="248.6,139.6 246.1,141 249.2,142.8 251.7,141.4 "/>
<polygon class="st18" points="252.2,141.7 249.8,143.1 267.6,153.5 270.1,152 "/>
<ellipse class="st3" cx="334.5" cy="169.1" rx="9.9" ry="4.9"/>
<path class="st3" d="M344.4,156v13.4c0,0-7.4,6.9-19.9,0.1V156"/>
<path class="st19" d="M336.6,168.9c-2.7,2.1-6.1,3.1-9.4,3.5c2.3,1.1,4.7,1.6,7.3,1.6c5.3,0,9.6-2,9.9-4.6l0,0V156h-0.2
	C342.5,160.8,340.8,165.7,336.6,168.9z"/>
<path class="st3" d="M326,160.8c0,0-1.6-2.5-3.2-1.1c-1.5,1.5-0.2,6.5,4.4,7v2c0,0-5.7-0.8-6.5-5.9c-0.8-5.1,2.9-5.9,4.7-4.5"/>
<ellipse class="st2" cx="334.5" cy="156" rx="9.9" ry="4.9"/>
<path class="st20" d="M241.1,156c-2.4-1.7-5.3-2.6-8.4-2c-3.3,0.7-6.2,2.8-9.5,3.3c-0.5,0.1-2.7-0.1-3,0.3
	c-9.4,8.9,16.9,7.9,16.9,7.9c2.5-2.1,4.9-4.1,7.5-6.2C243.7,157.6,242.4,156.9,241.1,156z"/>
<path class="st5" d="M228.7,168.9l-0.9,26.8c0,1,1.5,1,1.6,0l0.9-26.8C230.3,167.9,228.7,167.9,228.7,168.9z"/>
<path class="st5" d="M248.4,183.2c-4.8-4.7-9.4-9.6-13.7-14.6c-0.7-0.8-1.8,0.4-1.1,1.1c4.4,5.1,8.9,10,13.7,14.6
	C248,185.1,249.1,183.9,248.4,183.2z"/>
<path class="st5" d="M223.2,166.4c-3.7,7-7.2,14.1-10.5,21.3c-0.4,0.9,0.9,1.7,1.4,0.8c3.3-7.2,6.8-14.3,10.5-21.3
	C225.1,166.3,223.7,165.5,223.2,166.4z"/>
<path class="st21" d="M241.7,138.1c0.3-0.1,3-0.8,3.7-1c0.7-0.2,2.7-1.8,3.8-1.6c1.1,0.2,3.4,1.7,3.5,2.2c0.1,0.5-0.5,1.1-0.8,1.3
	c-0.2,0.2-1.9-0.4-2.5-0.5c-0.6-0.1-1.6,1.4-2.2,1.7c-0.6,0.3-4.5,1-4.5,1"/>
<path class="st21" d="M249,144.6c0.3-0.1,3-0.8,3.7-1c0.7-0.2,2.7-1.8,3.8-1.6c1.1,0.2,3.4,1.7,3.5,2.2c0.1,0.5-0.5,1.1-0.8,1.3
	s-1.9-0.4-2.5-0.5c-0.6-0.1-1.6,1.4-2.2,1.7c-0.6,0.3-4.5,1-4.5,1"/>
<path class="st8" d="M247.9,178.7c0.5-0.5,0.8-1.1,0.6-1.6c-0.3-1-1.6-1.4-2.6-1.3c-0.9,0.1-1.9,0.5-2.8,0.8c-1,0.4-2,0.5-3,0.4
	c-0.2,0-0.3-0.1-0.4-0.2c-0.6-0.1-1.1-0.5-1.2-1.1l-3-1.1c0,0-0.8,6.4-0.7,6.9c0.2,3.5,5.4,1.5,5.4,1.5s0.2-1.6,0.2-1.8
	c0-0.2,2,0.4,2.9,0.3c0.4-0.1,0.7-0.3,1.1-0.5c0.6-0.3,1.2-0.7,1.8-1.1C246.7,179.4,247.3,179.1,247.9,178.7z"/>
<path class="st22" d="M236.6,155c-1.1,0.1-2.3,0.3-3.4,0.4c0.5,7.3,1,14.6,1.6,21.8c2.9,1.2,4.1,0.6,6-1.2c0.4-6.9,1-14.2,0.9-21.2
	C240,154.9,238.3,155,236.6,155z"/>
<path class="st22" d="M224.3,153c0,0-0.5,8,3.5,9.7s12.2,0.9,16.3-1.5c2.1-1.3,4.3-2.4,6.6-3.3c0,0,1.1-3.5-1.5-5
	c-2.5-1.5-8.1-3.4-13,0"/>
<path class="st23" d="M244.8,141.1c0.4-1.6,0.2-4.3,0.2-4.3s-5,0.9-7.1,0.5c-2.1-0.3-5.6-4.7-5.6-4.7l0.5,8.7
	C236.7,142.2,240.9,142.3,244.8,141.1z"/>
<path class="st8" d="M257.2,183.7c0.5-0.5,0.8-1.1,0.6-1.6c-0.3-1-1.6-1.4-2.6-1.3c-0.9,0.1-1.9,0.5-2.8,0.8c-1,0.4-2,0.5-3,0.4
	c-0.2,0-0.3-0.1-0.4-0.2c-0.6-0.1-1.1-0.5-1.2-1.1l-3-1.1c0,0-0.8,6.4-0.7,6.9c0.2,3.5,5.4,1.5,5.4,1.5s0.2-1.6,0.2-1.8
	c0-0.2,2,0.4,2.9,0.3c0.4-0.1,0.7-0.3,1.1-0.5c0.6-0.3,1.2-0.7,1.8-1.1C255.9,184.4,256.6,184.1,257.2,183.7z"/>
<path class="st22" d="M245.5,153.2c-1.1-0.5-2.1-0.4-3.4-0.4c0.2,2.6,0.1,3.5,0.2,6.1l0,0.7c0.5,7.6,1.1,15.2,1.6,22.8
	c2.9,1.2,4.1,0.6,6-1.2c0.4-8.1,1.2-16.6,0.9-24.7C249.2,154.7,247.7,154.3,245.5,153.2z"/>
<path class="st23" d="M224.3,151.4c0,0.2,0,0.9,0.1,1.6c1.7,2.2,3.7,3.5,6.9,3.4c2.6-0.1,4.7-1.2,6.8-2.6c-0.3-4.7-1-12.7-2.2-18.2
	c-0.1-0.5-1.3-0.8-1.7-1c-0.8-0.4-0.4-1.2-1.2-1.7c-1.2-0.7-2.4-1.3-3.7-1.8h0c-2,0-5.6,1.5-5.8,4.3c-0.3,4.2,0.1,6.8,0.5,11
	C223.9,148.1,224.1,149.7,224.3,151.4z"/>
<path class="st21" d="M231.4,123.1c0.3,0.1,2.5,5.3,1.7,8.5s-6.3-0.1-7.7-2.5C224,126.7,226.3,121.8,231.4,123.1z"/>
<path class="st22" d="M231.3,123.8c0,0,0,1.7-1.5,2.3s-2.8,0.9-2.7,1.6s2.7-0.1,2.8,1.5c0,1.1-0.1,2.1-0.4,3.2
	c-0.2,0.8-4.7-1.6-6.2-5.7s2.2-5.2,2.4-5.2c0.2,0,0.5-1.2,2.4-1.5c1.8-0.4,2.4,0.3,2.4,0.3c0.9-0.5,2-0.4,2.7,0.3
	c1.7,1.3,1.2,3.8-0.7,4.8L231.3,123.8z"/>
<path class="st23" d="M252.2,143.4c-2.4,0.5-7.1,1.3-8.8,0.5c-1.3-0.6-5.7-10-10.4-11l-0.6,7.2c0,0,6.7,8.5,9.8,9.4
	c2.3,0.6,8.4-0.2,11-1.2C253.2,146.6,252.9,144.9,252.2,143.4z"/>
<path class="st22" d="M237.3,145.6c-0.4-0.4-4.2-4.9-4.2-4.9l4.7,9.6L237.3,145.6z"/>
<path class="st3" d="M244,159.2c-1.5,2-3.5,3.6-5.9,4.4c-3.3,1-8.2,0.5-10-2.9c-3.2-6.4-0.2-14.3-3.6-20.5c-0.8-1.6-2.2-2.8-3.9-3.2
	c-2.2-0.5-3.7,1.2-4.5,3.1c-1.4,3.5-1.4,7.8-1.3,11.5c0,3,0.2,6,0.6,8.9c0,0,2,12.4,18,9.1c2.8-0.5,5.4-1.5,7.8-2.9
	c1.2-0.7,2.3-1.7,3.2-2.8C245.6,162.3,244.9,160.6,244,159.2z"/>
<rect x="-0.3" y="75.6" class="st24" width="363.5" height="151.9"/>
</svg>
